<?xml version="1.0" encoding="utf-8"?>
<!-- Generator: Adobe Illustrator 24.0.0, SVG Export Plug-In . SVG Version: 6.00 Build 0)  -->
<svg version="1.1" xmlns="http://www.w3.org/2000/svg" xmlns:xlink="http://www.w3.org/1999/xlink" x="0px" y="0px"
	 viewBox="0 0 600 600" style="enable-background:new 0 0 600 600;" xml:space="preserve">
<style type="text/css">
	.st0{fill:#EFE6D9;}
	.st1{fill:#A36140;}
	.st2{opacity:0.3;}
	.st3{fill:#ED4A2F;}
	.st4{opacity:0.3;fill:#FFFFFF;}
	.st5{fill:#363E4F;}
	.st6{fill:#FFB68D;}
	.st7{fill:#65A9DF;}
	.st8{fill:#F7BC4B;}
	.st9{opacity:0.2;fill:#FFFFFF;}
</style>
<g id="Background_x5F_Simple">
	<g>
		<path class="st0" d="M173.02,329.7c-0.1,21.47-40.63,53.33-39.61,58.37s68.65-60.05,86.08-73.44s-5.39,15.7,4.02,16.93
			s118.35-80.08,147.54-104.35s53.23-62.07,51.28-70.7c-1.95-8.63-21.61,4.16-22.88-5.24c-1.27-9.4,86.18-84.37,87.31-102.64
			s-58.82,15.78-79.26,40.27s-9.24-21.32-38.94-5.77c0,0-15.29-75.6-87.83-45.19s-75.47,131.1-67.29,184.53
			c0,0-28.12,17.65-10.18,50.85S173.24,283.07,173.02,329.7z"/>
		<path class="st0" d="M77.65,338.56c0,0-21.78,46.53-18.81,50.49c2.97,3.96,57.42-98,66.33-117.8s-8.41,7.42-8.41,7.42
			s-7.92-8.41-16.33,11.38c0,0,2.97-31.18-13.36-15.84c-16.33,15.34-9.9,55.44-9.9,55.44S71.22,338.07,77.65,338.56z"/>
		<path class="st0" d="M365.79,366.81c0,0-1.47-8.24,4.22-13.25c5.69-5.01,7.99,1.79,7.99,1.79s4.22-62.34,45.95-82.69
			s44.92,28.07,44.92,28.07s15.05-24.61,28.2-14.83c13.15,9.78,18.9,12.65,29.72,8.23s15.95,10.06,14.35,13.87
			c-1.6,3.81-210.25,105.58-219.94,106.22C311.52,414.85,356.8,378.05,365.79,366.81z"/>
		<path class="st0" d="M180.95,550.27c11.32-12.89,81.47-52.94,112.83-59.9s28.6,22.14,28.6,22.14s18.36-12.4,25.66-10.09
			c7.3,2.3-2.91,20.22,23.52,7.7c26.43-12.53,152.34-29.97,162.14-22.86s-184.26,52.26-221.17,65.76
			c-36.91,13.5-35.51-0.24-33.23-9.15S157.96,576.46,180.95,550.27z"/>
	</g>
</g>
<g id="Layer_x5F_Wind">
	<g>
		<path class="st0" d="M181.92,248.22c0,0-72.33,124.15-84.2,164.63C97.72,412.85,165.19,295.72,181.92,248.22z"/>
		<path class="st0" d="M199.19,526.74c0,0,123.07-92.3,208.35-146.82C407.54,379.92,253.71,494.89,199.19,526.74z"/>
		<path class="st0" d="M210.73,461.15c0,0-13.68,10.71-13.88,11.7c-0.2,0.99,4.96-0.59,4.96-0.59l-30.73,30.33
			c0,0,36.28-31.13,36.87-32.32s-5.15-0.4-5.15-0.4L210.73,461.15z"/>
		<path class="st0" d="M164.28,461.68c0,0-34.36,31.19-35.16,34.63c-0.79,3.44,8.19,1.59,8.19,1.59l-66.35,71.37
			c0,0,74.54-72.96,75.6-75.33c1.06-2.38-10.84,0.26-10.84,0.26L164.28,461.68z"/>
		<path class="st0" d="M107.78,483.16c0,0-22.03,29.27-29.27,42.75C78.51,525.91,99.88,501.9,107.78,483.16z"/>
		<path class="st0" d="M114.75,415.75c0.88-2.2-9.78,10.57-9.25,11.63C106.02,428.44,113.69,418.39,114.75,415.75z"/>
		<path class="st0" d="M76.87,439.6c0,0-10.76,16.41-11.75,19.76S73.53,447.39,76.87,439.6z"/>
	</g>
</g>
<g id="Layer_x5F_Character2">
	<g id="body_00000097477180125247654340000010641987132008565655_">
		<g>
			<path class="st1" d="M256.28,204.01c0,0-2.82,14.88,1.61,28.95c4.42,14.08,59.52-0.4,66.76-12.87
				c7.24-12.47-25.74-43.03-25.74-43.03L256.28,204.01z"/>
			<path class="st2" d="M256.28,204.01c0,0-2.82,14.88,1.61,28.95c4.42,14.08,59.52-0.4,66.76-12.87
				c7.24-12.47-25.74-43.03-25.74-43.03L256.28,204.01z"/>
		</g>
	</g>
	<g id="tongue">
		<g>
			<path class="st3" d="M209.79,204.72c-5.26,6.63,17.54,9.94,31.38-2.53S215.05,198.09,209.79,204.72z"/>
			<path class="st4" d="M209.79,204.72c-5.26,6.63,17.54,9.94,31.38-2.53S215.05,198.09,209.79,204.72z"/>
			<path class="st2" d="M215.57,205.74c0,0,12.23-1.94,21.67-6.06C237.24,199.68,230.13,205.55,215.57,205.74z"/>
		</g>
	</g>
	<g id="ear">
		<path class="st5" d="M241.34,139.73c0,0-15.58-5.62-28.6,3.58c-13.03,9.19,8.94,7.15,20.94,2.3
			C245.69,140.75,241.34,139.73,241.34,139.73z"/>
	</g>
	<g id="head_00000072255821950716507240000013071209222819124883_">
		<g>
			<g>
				<path class="st1" d="M272.36,205.22c-32.57,12.88-51.79-14.4-50.17-20.03c1.35-4.75,11.3-10.36,14.38-11.99
					c0.28-0.17,0.59-0.32,0.9-0.47l-12.07-28.15c0.13-0.12,0.26-0.23,0.4-0.33c15.74-13.42,42.54-17.84,42.54-17.84
					s-32.98-14.47-8.05-12.86c19.99,1.28,33.51,21.17,39.94,39.98c1.6,4.67,2.77,9.27,3.49,13.51
					C303.73,167.01,304.93,192.35,272.36,205.22z"/>
				<path class="st2" d="M237.47,172.73l-12.07-28.15c0.13-0.12,0.26-0.23,0.4-0.33c12.13,11.21,48.21,17.55,48.21,17.55
					S254.25,164.45,237.47,172.73z"/>
				<path class="st2" d="M272.36,205.22c-32.57,12.88-51.79-14.4-50.17-20.03c1.35-4.75,11.3-10.36,14.38-11.99
					c-15.11,8.65,5.14,31.18,31.14,24.69c19.4-4.85,28.85-30.81,32.52-44.38c1.6,4.67,2.77,9.27,3.49,13.51
					C303.73,167.01,304.93,192.35,272.36,205.22z"/>
			</g>
			
				<ellipse transform="matrix(0.9514 -0.308 0.308 0.9514 -34.9057 90.3267)" class="st5" cx="268.65" cy="155.72" rx="2.81" ry="4.21"/>
			
				<ellipse transform="matrix(0.9514 -0.308 0.308 0.9514 -38.9303 83.5983)" class="st5" cx="245.32" cy="165.11" rx="2.81" ry="4.21"/>
			<path class="st5" d="M240.73,175.44c-7.25,3.72,0.27,8.18,5.63,6.43S256.14,167.53,240.73,175.44z"/>
		</g>
	</g>
</g>
<g id="Layer_x5F_Character1">
	<g id="cape">
		<g>
			<path class="st5" d="M159.07,402.57c17.57-15.06,35.64-12.55,43.68,3.01s20.08,34.14,44.18,8.03
				c24.1-26.1,70.78-125,72.79-140.06c2.01-15.06,1-34.64-42.67-2.01S159.07,402.57,159.07,402.57z"/>
			<g>
				<path class="st3" d="M263.99,305.68c-21.58,20.08-136.54,152.11-137.55,141.06c-1-11.04,22.09-47.69,22.09-47.69
					s-28.82,10.48-24.08-0.23c0.74-1.7,2.33-3.92,5-6.8c9.69-10.43,39.91-34.64,67.97-56.43c28.64-22.24,55.03-41.96,55.03-41.96
					s12.05-28.62,32.13-33.64c0,0,6.52,0.51,8.03,6.53C294.12,272.54,285.58,285.6,263.99,305.68z"/>
				<path class="st2" d="M263.99,305.68c-21.58,20.08-136.54,152.11-137.55,141.06c-1-11.04,22.09-47.69,22.09-47.69
					s-28.82,10.48-24.08-0.23c23-6.72,60.68-36.77,61.76-37.63c-0.69,0.85-24.1,29.6-21.32,33.8c2.81,4.25,46.55-51.67,51.29-57.74
					c2.92-3.73-9.09-2.87-18.76-1.66c28.64-22.24,55.03-41.96,55.03-41.96s12.05-28.62,32.13-33.64c0,0,6.52,0.51,8.03,6.53
					C294.12,272.54,285.58,285.6,263.99,305.68z"/>
			</g>
		</g>
	</g>
	<g id="right_thigh">
		<g>
			<path class="st5" d="M252.95,416.77c-10.75,10.76-44.24,36.39-56.64,42.6c-6.96,3.48-11.05,1.1-12.86-2.68
				c-1.42-2.95-1.45-6.77-0.36-9.31c1.5-3.5,10.32-27.43,20.22-47.08c6.47-12.81,13.4-23.79,19.05-26.11
				C258.74,359.31,263.71,406.03,252.95,416.77z"/>
			<path class="st2" d="M252.95,416.77c-10.75,10.76-44.24,36.39-56.64,42.6c-6.96,3.48-11.05,1.1-12.86-2.68
				c0.72-0.58,1.42-1.16,2.13-1.75c10.66-8.93,23.65-36.13,23.65-36.13s-4.22-8.16-5.92-18.51c6.47-12.81,13.4-23.79,19.05-26.11
				C258.74,359.31,263.71,406.03,252.95,416.77z"/>
		</g>
	</g>
	<g id="left_calf_00000062911006717936573790000015629684282408590496_">
		<g>
			<path class="st6" d="M192.37,458.74c-1.8,2.04-7.54,7.48-15.89,12.85c-14.48,9.31-32.8,20.04-34.14,19.9
				c-1.21-0.13-1.87-1.35-2.22-2.36c-0.14-0.4-0.23-0.76-0.28-1.01c2.4-4.9,14.99-18.49,25.05-27.5c1.53-1.37,3-2.64,4.38-3.76
				c6.92-5.61,12.47-5.65,16.09-5.83c0.62,0.05,1.38,0.37,2.02,0.48c0.73,0.12,0.99-0.24,1.78,0
				C193.13,452.73,196.45,454.08,192.37,458.74z"/>
			<path class="st5" d="M193.69,459.28c-1.8,2.04-8.87,6.95-17.22,12.31c-7.06,0.17-11.19-5.03-11.59-10.98
				c1.53-1.37,3-2.64,4.38-3.76c6.92-5.61,12.85-6.96,16.47-7.14c0.62,0.05,1.25,0.13,1.89,0.23
				C192.05,450.64,198.59,453.68,193.69,459.28z"/>
			<path class="st2" d="M193.69,459.28c-1.8,2.04-8.87,6.95-17.22,12.31c-14.48,9.31-32.8,20.04-34.14,19.9
				c-1.21-0.13-1.87-1.35-2.22-2.36c2.77-2.45,5.8-5.01,8.99-7.59c12.35-10.04,25.8-17.65,36.47-26.6c1.42-1.19,2.89-2.71,4.36-4.45
				C193.91,451.71,197.78,454.62,193.69,459.28z"/>
		</g>
	</g>
	<g id="right_foot">
		<g>
			<path class="st5" d="M143.05,490.09c0,0-3.66,5.89-7.12,10.46c-2.48,3.26-4.84,5.85-5.71,5.17c-0.85-0.67-0.9-3.2-0.58-6.12
				c0.24-2.21,0.69-4.63,1.17-6.64c1.89-1.64,1.99-2.67,1.99-2.67l-1.42,0.56c0.26-0.89,0.5-1.58,0.71-1.94
				c1.13-2.03,4.87-2.75,8.92-2.79c0.14-0.01,0.28-0.01,0.42-0.01l0.56,1.37L143.05,490.09z"/>
			<path class="st6" d="M143.05,490.09c0,0-3.66,5.89-7.12,10.46c-1.13-0.06-1.87-0.55-1.87-1.75c0-3.59,3.61-9.36,6.95-12.67
				c0.14-0.01,0.28-0.01,0.42-0.01L143.05,490.09z"/>
			<path class="st2" d="M143.05,490.09c0,0-3.66,5.89-7.12,10.46c-2.48,3.26-4.84,5.85-5.71,5.17c-0.85-0.67-0.9-3.2-0.58-6.12
				c2.93-3.58,7.27-7.72,12.35-12.11L143.05,490.09z"/>
		</g>
	</g>
	<g id="left_calf">
		<g>
			<path class="st6" d="M269.95,473.06c-0.82,3.7-14.07,3.39-30.5,4.43c-6.06,0.37-12.56,0.94-19.03,1.95c0,0-3.26,1.14-4.31-0.3
				c-0.06-0.08-0.12-0.17-0.15-0.26c-0.83-1.84,1.09-3.21,1.09-3.21s8.61-8.99,20.85-13.13c2.66-0.9,5.48-1.57,8.42-1.87
				c7.45-0.76,13.22,0.65,17.2,2.9C268.37,466.31,270.57,470.28,269.95,473.06z"/>
			<path class="st5" d="M269.95,473.06c-0.82,3.7-14.07,3.39-30.5,4.43c-4.52-4.58-3.34-10.64-1.55-14.94
				c2.66-0.9,5.48-1.57,8.42-1.87C262.83,458.99,271.08,467.99,269.95,473.06z"/>
			<path class="st2" d="M269.95,473.06c-0.82,3.7-14.07,3.39-30.5,4.43c-6.06,0.37-12.56,0.94-19.03,1.95c0,0-3.26,1.14-4.31-0.3
				c2.97-1.8,6.38-3.53,10.24-4.98c17.1-6.42,29.32-0.32,34.41-6.15c0.96-1.1,1.89-2.66,2.76-4.44
				C268.37,466.31,270.57,470.28,269.95,473.06z"/>
		</g>
	</g>
	<g id="left_foot">
		<g>
			<path class="st5" d="M218.78,479.05c0,0-2.32,3.84-4.83,7.25c-2.52,3.41-5.22,6.42-5.97,4.71c-0.58-1.32-0.26-3.77,0.36-6.29
				c0.26-1.07,0.58-2.16,0.9-3.16c0.83-0.12,2.29-0.4,2.23-0.94c-0.05-0.42-0.94-0.65-1.67-0.78c0.63-1.82,1.17-3.12,1.17-3.12
				c1.62-0.21,3.22-0.13,4.43,0c1.28,0.14,2.13,0.33,2.13,0.33l0.58,0.92L218.78,479.05z"/>
			<path class="st6" d="M218.78,479.05c0,0-2.32,3.84-4.83,7.25c-0.72,0.14-1.28-0.01-1.57-0.51c-0.82-1.49,1.16-7.18,3.02-9.06
				c1.28,0.14,2.13,0.33,2.13,0.33L218.78,479.05z"/>
			<path class="st2" d="M218.78,479.05c0,0-2.32,3.84-4.83,7.25c-2.52,3.41-5.22,6.42-5.97,4.71c-0.58-1.32-0.26-3.77,0.36-6.29
				c2.57-2.18,5.83-4.54,9.77-6.74L218.78,479.05z"/>
		</g>
	</g>
	<g id="left_thigh">
		<g>
			<path class="st5" d="M295.68,403.05c-0.67,16.01-11.18,50.44-18.42,63.59c-6.43,11.7-16.5,9.71-20.81,3.74
				c-0.54-0.74-0.99-1.55-1.34-2.41c-1.54-3.86-2.34-15.19-2.64-26.11c-0.31-10.75-0.14-21.12,0.23-23.66
				C257.96,381.99,296.33,387.04,295.68,403.05z"/>
			<path class="st2" d="M295.68,403.05c-0.67,16.01-11.18,50.44-18.42,63.59c-6.43,11.7-16.5,9.71-20.81,3.74
				c1.76-0.39,3.21-1.08,4.31-2.35c5.08-5.84,9.29-24.2,9.29-24.2s-8.33,2.17-17.59-1.98c-0.31-10.75-0.14-21.12,0.23-23.66
				C257.96,381.99,296.33,387.04,295.68,403.05z"/>
		</g>
	</g>
	<g id="left_upper_arm">
		<g>
			<path class="st7" d="M405.13,290.11c0,0-36.52,23.43-51.21,24.37c-14.67,0.94-37.15-23.43-1.86-51.84l8.28-5.84l21.37-15.08
				c0,0,17.48-0.31,25.29,17.81c0.9,2.09,1.57,4.11,2.04,6.03C412.71,280.34,405.13,290.11,405.13,290.11z"/>
			<path class="st2" d="M405.13,290.11c0,0-36.52,23.43-51.21,24.37c-14.67,0.94-37.15-23.43-1.86-51.84l8.28-5.84
				c-2.45,26.21,16.52,27.77,34.15,13.49c4.08-3.3,9.29-4.76,14.56-4.74C412.71,280.34,405.13,290.11,405.13,290.11z"/>
			<path class="st5" d="M407.01,259.52c-3.86-8.96-10.09-13.42-15.41-15.62c-5.42-2.26-9.89-2.18-9.89-2.18s-1.81,6.24-2.07,14.25
				c-0.05,1.41-0.05,2.88,0.01,4.36c0.5,11.03,4.58,23.74,19.53,28.42c1.81,0.59,3.79,1.04,5.94,1.36c0,0,3.71-4.79,4.69-12.74
				c0.53-4.27,0.26-9.49-1.82-15.35C407.7,261.2,407.38,260.37,407.01,259.52z"/>
			<g>
				<path class="st6" d="M391.6,243.9l-11.95,12.07c-0.05,1.41-0.05,2.88,0.01,4.36c0.5,11.03,4.58,23.74,19.53,28.42
					c2.39-2.5,6.24-6.61,10.63-11.37c10.8-11.73,24.82-27.5,27.79-33.47c8.69-21.07-14.33-33.11-25.29-20.93L391.6,243.9z"/>
				<path class="st2" d="M407.99,262.03c-10.95,3.94-21.63,4.52-28.33-1.69c0.5,11.03,4.58,23.74,19.53,28.42
					c2.39-2.5,6.24-6.61,10.63-11.37c10.8-11.73,24.82-27.5,27.79-33.47l-0.16-0.13C429.78,250.97,418.77,258.14,407.99,262.03z"/>
				<path class="st2" d="M437.45,243.78l0.16,0.13c0.08-0.15,0.15-0.31,0.23-0.49C437.72,243.54,437.58,243.66,437.45,243.78z"/>
			</g>
		</g>
	</g>
	<g id="left_arm">
		<path class="st6" d="M452.37,166.49h-0.01l-2.25-1.44l-5.75-3.67l-1.73-1.1l-2.52-1.6l-2.98,6.89l-0.76,1.75l-24.06,55.68
			c-9.19,20.52,12.79,35.96,25.29,20.93c0.08-0.15,0.15-0.31,0.23-0.49c4.22-9.45,12.98-54.46,15.94-70.06c0-0.01,0-0.01,0-0.01
			c0.39-2.03,0.67-3.53,0.83-4.43c0.1-0.59,0.17-0.9,0.17-0.9L452.37,166.49z"/>
		<g>
			<path class="st6" d="M438.63,171.58l-2.31-4.38c0,0-6.22-17.23,0.03-25.19c6.26-7.96,22.18,10.24,23.32,17.44
				c1.14,7.2-8.67,17.12-8.67,17.12L438.63,171.58z"/>
			<g>
				<path class="st6" d="M463.99,156.78c-0.24,4.45-3.43,11.48-7.16,12.26c-4.54,0.96-5.1-4.96-5.1-4.96s-2.48,2.34-5.51,0.69
					c-3.03-1.66-1.51-7.18-1.51-7.18s-2.62,0.69-5.38-1.51c-2.76-2.21-0.14-8.54-0.14-8.54s-1.51,0-2.62-2.49
					c-0.76-1.73,0.41-6.26,3.16-9.32c1.19-1.32,2.68-2.38,4.43-2.8c8.41-2.07,6.61,4.27,6.61,4.27c5.79-0.14,5.38,6.88,5.38,6.88
					c6.34,0.28,3.03,8,3.03,8s3.17-1.37,4.54,2.21C463.97,154.95,464.06,155.79,463.99,156.78z"/>
				<path class="st2" d="M463.99,156.78c-0.24,4.45-3.43,11.48-7.16,12.26c-4.54,0.96-5.1-4.96-5.1-4.96s-2.48,2.34-5.51,0.69
					c-3.03-1.66-1.51-7.18-1.51-7.18s-2.62,0.69-5.38-1.51c-2.76-2.21-0.14-8.54-0.14-8.54s-1.51,0-2.62-2.49
					c-0.76-1.73,0.41-6.26,3.16-9.32c-0.04,5.93,8.24,2.58,8.24,2.58s-4.92,5.57-2.8,8.69c2.03,2.99,6.89-0.64,7.34-0.98
					c-0.28,0.58-5.34,10.28-1.87,11.35c3.57,1.12,7.81-4.34,7.81-4.34s-3.12,7.14-0.22,8.59
					C460.24,162.65,462.7,159.05,463.99,156.78z"/>
			</g>
			<path class="st6" d="M438.43,153.95c0,0,4,4.82,7.03,1.79c3.03-3.03-2.48-14.88-9.92-12.68c-7.44,2.2-7.86,15.85-2.76,22.19
				S445.87,165.12,438.43,153.95z"/>
		</g>
	</g>
	<g id="hair">
		<g>
			<path class="st5" d="M385.41,186.87c-0.31,9.69-4.47,21.16-16.11,33.22c0,0,18.19,23.26-24.93,49.21
				c-43.13,25.95-102.11,9.44-99.08-24.6c3.03-34.05,50.55-25.61,50.55-25.61s-11.4-12.99-9.08-30.72c0.5-3.84,1.64-7.88,3.68-12.08
				c11.28-23.24,49.39-13.11,50.52-12.81c-0.51-0.24-8.79-4.24-10.76-10.44c-2.02-6.41,37.41-7.07,39.09,27.96
				c0,0,3.71-6.74,0.68-19.54C367.89,152.65,386.11,165.42,385.41,186.87z"/>
			<path class="st2" d="M369.3,220.1c0,0,18.19,23.26-24.93,49.21c-43.13,25.95-102.11,9.44-99.08-24.6
				c3.03-34.05,50.55-25.61,50.55-25.61s-11.4-12.99-9.08-30.72c7.39-13.76,26.63-18.72,47.36-15.64
				c27.29,4.07,35.71,22.65,35.71,22.65s6.38-4.65,9.86-12.77c1.41-3.3,4.26-1.3,5.71,4.26C385.1,196.57,380.95,208.03,369.3,220.1z
				"/>
		</g>
	</g>
	<g id="body">
		<g>
			<g>
				<path class="st8" d="M359.87,289.81c0,0,2.36,31.04-1.82,42.78c-0.13,0.33-0.24,0.64-0.37,0.94
					c-4.69,10.94-25.29,21.86-28.1,26.86c-0.32,0.56-0.51,1.23-0.59,1.95c-0.68,5.65,4.97,15.23,4.97,15.23s7.45,25.96-19.03,44.43
					c-2.46,1.73-5.24,3.39-8.33,4.94c-2.82,1.44-5.93,2.8-9.33,4.06c-2.67,0.99-5.53,1.91-8.59,2.77
					c-37.78,10.58-61.35-8.36-72.26-29.68c-1.51-2.98-2.8-6.01-3.83-9c-2.71-7.82-3.75-15.46-3.22-21.58
					c2.18-25.3,15.93-35.92,15.93-35.92l38.4-11.86c0,0,3.76-28.4,6.77-46.06c0.86-5.11,1.67-9.32,2.3-11.7
					c2.8-10.62,82.43-6.25,82.43-6.25C363.6,273.57,359.87,289.81,359.87,289.81z"/>
				<path class="st2" d="M216.4,404.07c-1.51-2.98-2.8-6.01-3.83-9c10.72-8.82,31.67-24.39,36.66-27.02
					C253.63,365.73,229.08,390.97,216.4,404.07z"/>
				<path class="st2" d="M314.92,421.98c-2.46,1.73-5.24,3.39-8.33,4.94c-1.69-14.25-3.68-32.81-2.86-35.07
					C304.55,389.59,310.43,407.53,314.92,421.98z"/>
				<path class="st2" d="M358.04,332.58c-0.13,0.33-0.24,0.64-0.37,0.94c-4.69,10.94-25.29,21.86-28.1,26.85
					c-0.32,0.57-0.51,1.24-0.59,1.96c-10.27,5.03-37.91,20.1-37.58,36.25c0.26,12.45,3.78,24.58,5.86,32.4
					c-2.67,0.99-5.54,1.91-8.59,2.77c-56.83,15.92-81.5-34.97-79.31-60.26c0.28-3.3,0.77-6.35,1.39-9.16
					c4.14-18.73,14.54-26.76,14.54-26.76l38.4-11.86c0,0,3.76-28.39,6.76-46.06c0.84,2.33,1.58,4.89,2.21,7.68
					c0.36,1.59,0.68,3.26,0.97,5c8.68,52.51,52.09,51.68,52.09,51.68c-14.06,4.13-35.55,7.85-17.77,7.44
					C322.98,351.11,343.36,346.32,358.04,332.58z"/>
				<path class="st2" d="M270.05,345.26c-6.05-0.59-39.72,5.48-59.3,19.07c4.14-18.73,14.54-26.76,14.54-26.76l38.4-11.86
					c0,0,3.76-28.39,6.76-46.06c0.84,2.33,1.58,4.89,2.21,7.68C265.76,310.41,277.17,345.94,270.05,345.26z"/>
			</g>
			<g>
				<path class="st3" d="M338.7,288.75c0,0-65.44-1.71-79.56-22.68c-10.62-15.76,6.96-30.18,34.12-33.34h0.01
					c8.97-1.03,18.98-0.84,29.36,0.93c7.11,1.22,13.62,2.91,19.27,5.01C369.55,248.94,380.86,268.19,338.7,288.75z"/>
				<path class="st5" d="M349.83,273.69c0,0,0,0.01,0,0.03c-4.47,7.98-11,13.56-11,13.56s-11.77,1.44-34.14-13.11
					c-1.86-1.21-3.63-2.54-5.28-3.97c-12.95-11.25-18.4-28.33-6.15-37.47h0.01c8.97-1.03,18.97-0.83,29.36,0.94
					c7.11,1.22,13.62,2.91,19.28,5.01c5.01,4.01,9.28,9.1,11.14,15.48C355.1,261.13,353,268.02,349.83,273.69z"/>
			</g>
			<g>
				<path class="st6" d="M350.15,271.41c-0.05,0.26-0.14,1.09-0.32,2.29c0,0,0,0.01,0,0.03c-4.47,7.98-11,13.56-11,13.56
					s-7.47,0.91-21.82-6.07c-3.66-1.78-7.77-4.08-12.31-7.04c-1.86-1.21-3.63-2.54-5.28-3.97c4.78-2.4,15.11-3.13,15.11-3.13
					l6.07-27.73l20.84,8.72l-2.39,16.83l-0.72,5.12C338.32,270.01,350.43,270.01,350.15,271.41z"/>
				<path class="st2" d="M341.43,248.06l-2.39,16.83c-4.03,5.74-11.17,11.93-22.04,16.32c-3.66-1.78-7.77-4.08-12.31-7.04
					c-1.86-1.21-3.63-2.54-5.28-3.97c4.78-2.4,15.11-3.13,15.11-3.13l6.07-27.73L341.43,248.06z"/>
			</g>
		</g>
	</g>
	<g id="head">
		<g>
			<g>
				<g>
					<path class="st6" d="M315.48,228.96c0,0-8.89-8.1-14.43-0.99c-5.53,7.11,9.88,19.37,17.19,14.43L315.48,228.96z"/>
					<path class="st2" d="M318.25,242.4c-4.25,2.88-11.25-0.06-15.26-4.43c-1.72-3.63-1.78-7.42,0.9-9.86
						c2.79-2.53,8.19-0.77,11.25,0.55c0.23,0.19,0.36,0.31,0.36,0.31L318.25,242.4z"/>
					<path class="st6" d="M368.57,252.49c-1.08,0.78-2.29,1.46-3.61,2.08c-5.24,2.45-12.37,3.77-21.36,5.16
						c-23.52,3.63-24.74-9.71-30.55-28.62c-0.67-2.17-1.18-4.39-1.54-6.63c0-0.02,0-0.02,0-0.03c-2.83-17.4,3.69-36.24,24.08-39.89
						c0.11-0.02,0.21-0.04,0.32-0.05c0.54-0.1,1.08-0.18,1.61-0.26c19.05-2.68,28.05,7.26,32.8,21.06c0,0,0,0.01,0.01,0.02
						c2.49,7.23,3.81,15.53,4.79,23.6C376.63,241.45,374.38,248.29,368.57,252.49z"/>
					<path class="st9" d="M368.57,252.49c1.17-38.58-9.05-59.9-32.66-67.98c0.54-0.1,1.08-0.18,1.61-0.26
						c19.05-2.68,28.05,7.26,32.8,21.06c0,0,0,0.01,0.01,0.02c2.49,7.23,3.81,15.53,4.79,23.6
						C376.63,241.45,374.38,248.29,368.57,252.49z"/>
					<path class="st2" d="M364.96,254.57c-5.24,2.45-12.38,3.77-21.36,5.16c-23.52,3.63-24.74-9.71-30.55-28.62
						c-0.67-2.17-1.18-4.39-1.54-6.64c0-0.01,0-0.01,0-0.03c-2.82-17.4,3.7-36.24,24.08-39.89c0.65-0.12,1.3-0.22,1.93-0.31
						c-19.62,22.2-10.32,56.13-0.69,67.18C342.73,258.23,355.37,256.89,364.96,254.57z"/>
				</g>
				<path class="st8" d="M370.32,205.31c-3.53-6.34-13.16-18.59-33.26-13.47c-20.96,5.33-24.85,24.61-25.55,32.61
					c-2.82-17.4,3.7-36.24,24.08-39.89C355.96,180.92,365.41,191.06,370.32,205.31z"/>
			</g>
			<g>
				<path class="st3" d="M308.63,210.68c-3.96,3.91-8.21,10.12-7.35,11.6c0.85,1.48,9.14,5.51,12.98,5.46s1.11-14.45,1.11-14.45
					L308.63,210.68z"/>
				<path class="st2" d="M312.19,215.83c-1.3,2.75-4.8,10,0.19,10.36c1.99,0.14,3.33-5.38,2.86-8.3S313.56,212.92,312.19,215.83z"/>
				<path class="st3" d="M312.62,202.29c0,0-25.16-0.48-25.06-0.04s2.98,4.4,2.98,4.4s-2.72,2.71-2.49,3.38s22.83-1.41,22.83-1.41
					L312.62,202.29z"/>
				<path class="st2" d="M312.62,202.29c0,0-25.16-0.48-25.06-0.04s2.98,4.4,2.98,4.4s-2.72,2.71-2.49,3.38s22.83-1.41,22.83-1.41
					L312.62,202.29z"/>
				<path class="st3" d="M312.62,205.95c0,0-15.11-0.08-16.99,0s1.99,4.09,1.99,4.09s-2.55,4.34-2.5,4.38
					c0.04,0.04,15.76-2.87,15.76-2.87L312.62,205.95z"/>
				<path class="st3" d="M310.24,202.65c-4.68,2.07-4.19,10.05-2.25,11.94c1.95,1.89,7.58,3.93,10.03-1.05
					S315.42,200.36,310.24,202.65z"/>
				<path class="st3" d="M312.51,204.33c-2.61-3.22,1.6-18.17,4.6-19.53c3-1.36,11.59,12.25,11.27,14.2s-9.87,9.24-9.87,9.24
					L312.51,204.33z"/>
				<path class="st2" d="M318.34,207.1c-5.92,3.41,1.73-11.97,5.51-11.98S330.53,200.07,318.34,207.1z"/>
			</g>
			<g>
				
					<ellipse transform="matrix(0.9737 -0.2277 0.2277 0.9737 -40.9639 83.4007)" class="st5" cx="340.96" cy="219.23" rx="3.15" ry="3.83"/>
				<path class="st5" d="M335.08,211.87c0,0,2.97-4.44,8.59-3.22C343.67,208.65,337.88,204.46,335.08,211.87z"/>
				
					<ellipse transform="matrix(0.9914 -0.1308 0.1308 0.9914 -25.0159 49.4819)" class="st5" cx="364.23" cy="215.2" rx="2.69" ry="3.26"/>
				<path class="st5" d="M366.78,207.67c0,0-3.32-3.59-8.75-1.67C358.03,206.01,363.36,201.38,366.78,207.67z"/>
			</g>
		</g>
	</g>
	<g id="right_upper_arm">
		<g>
			<g>
				<path class="st6" d="M242.45,321.35c0,0-26.54,12.8-38.09,7.18c-3.56-1.73-5.37-4.26-6.09-7.02
					c-1.62-6.19,2.27-13.52,4.21-15.46c1.96-1.96,12.04-8.52,18.99-12.39c2.98-1.66,5.37-2.82,6.3-2.91L242.45,321.35z"/>
				<path class="st2" d="M242.45,321.35c0,0-26.54,12.8-38.09,7.18c-3.56-1.73-5.37-4.26-6.09-7.02c8.27,3.25,20.94-4.8,20.94-4.8
					s-3.09-9.9,2.26-23.04c2.98-1.66,5.37-2.82,6.3-2.91L242.45,321.35z"/>
			</g>
			<g>
				<path class="st7" d="M274.3,304.48l-31.53,20.3c0,0-14.06-2.18-20.62-14.67c-0.98-1.85-1.57-3.7-1.86-5.51
					c-1.68-10.33,6.24-19.15,6.24-19.15s40.35-24.29,48.71-19.05c2.64,1.66,4.67,3.43,6.21,5.26
					C293.47,286.06,274.3,304.48,274.3,304.48z"/>
				<path class="st2" d="M274.3,304.48l-31.53,20.3c0,0-14.06-2.18-20.62-14.67c-0.98-1.85-1.57-3.7-1.86-5.51
					c12.45,1.13,31.71-9.59,44.57-16.56c11.5-6.23,15.33-12.9,16.59-16.38C293.47,286.06,274.3,304.48,274.3,304.48z"/>
			</g>
		</g>
	</g>
	<g id="right_arm">
		<g>
			<g>
				<path class="st3" d="M298.58,312.16c-0.72-0.27-25.35-9.78-38.01-8.45c-7.7,0.82-17.04,2.75-23.27,4.16
					c-4.16,0.94-6.93,1.64-6.93,1.64s-10.45-0.65-14.17-10.51c-0.06-0.18-0.13-0.36-0.19-0.54c-4.26-12.57,8.56-18.55,8.56-18.55
					s2.18-0.71,5.39-2.13c4.81-2.13,11.94-5.84,17.52-11.14c9.32-8.83,21.17-34.2,21.17-34.2l22.62,60.22L298.58,312.16z"/>
				<path class="st7" d="M237.29,307.87c-4.16,0.94-6.93,1.64-6.93,1.64s-10.84-0.68-14.37-11.05c-4.26-12.57,8.56-18.55,8.56-18.55
					s2.18-0.71,5.39-2.13C221.09,287.84,222.28,300.37,237.29,307.87z"/>
				<path class="st2" d="M298.58,312.16c-0.72-0.27-25.35-9.78-38.01-8.45c-7.7,0.82-17.04,2.75-23.27,4.16
					c-4.16,0.94-6.93,1.64-6.93,1.64s-10.45-0.65-14.17-10.51c9.27-1.75,23.11-6.92,33.84-10.5c12.12-4.04,29.98-1.57,41.23,4.16
					L298.58,312.16z"/>
				<path class="st3" d="M316.34,290.49c-2.25,11.73-8.94,20.71-21.23,21.76c-10.23,0.87-18.15-3.26-23.96-10.1
					c-3.89-4.61-6.83-10.44-8.85-16.79c-2.31-7.28-3.43-15.25-3.41-22.85c0.03-15.83,4.93-30.08,13.97-33.16
					C302.02,219.38,321.66,262.68,316.34,290.49z"/>
				<path class="st2" d="M316.34,290.49c-5.49,10.26-13.72,13.08-11.27,8.37c3.7-7.11,4.56-15.52,4.56-15.52s-7.15,16.41-6.75,1.95
					c0.38-14.04-7.45-31.45-7.88-32.39c0.21,0.96,5.05,22.11,1.28,21.71c-3.66-0.39-15.8-18.45-33.97,10.74
					c-1.26-3.97-2.17-8.16-2.72-12.37c-0.47-3.51-0.7-7.03-0.69-10.48c0.02-15.83,4.93-30.08,13.96-33.16
					c3.5-1.2,6.86-1.62,10.06-1.4C306.37,229.55,321.02,266.02,316.34,290.49z"/>
				<path class="st2" d="M295.69,246.02c-3.19-0.25-10.86-14.81-13.92,0c-1.96,9.47-13.86,20.35-22.18,26.96
					c-0.47-3.51-0.7-7.03-0.69-10.48c0.02-15.83,4.93-30.08,13.96-33.16c3.5-1.2,6.86-1.62,10.06-1.4
					C295.98,230.9,297.96,246.21,295.69,246.02z"/>
				<g>
					<g>
						<path class="st7" d="M298.58,279.14c-9.9,4.92-24.13,19.55-27.42,23.01c-4.51-5.33-7.72-12.3-9.72-19.81
							c-1.72-6.43-2.54-13.27-2.54-19.83c14.28,1.41,31.38-6.47,31.38-6.47l4.33,3.86l1.95,9.44L298.58,279.14z"/>
						<path class="st2" d="M298.58,279.14c-9.9,4.92-24.13,19.55-27.42,23.01c-4.51-5.33-7.72-12.3-9.72-19.81
							c11.16-6.88,30.05-12.39,33.16-13.04c0.48-0.1,1.14-0.09,1.95,0.04L298.58,279.14z"/>
					</g>
					<path class="st7" d="M290.27,256.03c-6.49,2.22-5.46,24.59,6.33,23.58C308.39,278.61,302.06,252.01,290.27,256.03z"/>
					<path class="st4" d="M290.27,256.03c-6.49,2.22-5.46,24.59,6.33,23.58C308.39,278.61,302.06,252.01,290.27,256.03z"/>
				</g>
			</g>
			<g>
				<path class="st5" d="M237.03,311.42l7.88,23.19c0,0,3.3,0,3.71,0l6.27-5.33c0,0-11.59-2.19-10.03-20.37l-3.98,0.08
					L237.03,311.42z"/>
				<path class="st7" d="M233.32,311.42c0,0-2.82,15.04,11.59,23.19l6.27-5.33c0,0-11.59-2.19-10.03-20.37L233.32,311.42z"/>
			</g>
			<g>
				<path class="st6" d="M252.27,321.17c-1.16,1.54-11.72,1.37-11.72,1.37s-3.06,4.13-7.11,5.39c-4.07,1.25-6.82-1.13-6.82-1.13
					s-30.05,7.46-27.78-10.55c0.63-4.96,2.95-7.46,5.98-8.49c7.99-2.7,20.9,4.85,20.9,4.85c0.22-5.31,1.91-8.96,5.03-10.59
					c0.49-0.26,1.01-0.48,1.57-0.63c3.38-0.95,12.02,0.69,13.21,4.48c0.23,0.74,0.18,1.58-0.27,2.5c-0.04,0.08-0.08,0.15-0.13,0.24
					c0,0,1.09,0.37,1.55,1.45c0.36,0.78,0.39,1.94-0.56,3.57c0,0,1.19,0.27,1.77,1.43c0.31,0.62,0.44,1.48,0.14,2.67
					c0,0,2.82,0.63,4.24,2.82C252.41,320.79,252.41,320.99,252.27,321.17z"/>
				<path class="st2" d="M252.27,321.17c-1.16,1.54-11.72,1.37-11.72,1.37s-3.06,4.13-7.11,5.39c-4.07,1.25-6.82-1.13-6.82-1.13
					s-30.05,7.46-27.78-10.55c0.63-4.96,2.95-7.46,5.98-8.49c0.49,7.14,20.72,10.99,20.72,10.99l0.18-6.14
					c0.22-5.31,1.91-8.96,5.03-10.59c-0.42,1.34-0.72,3.03,0.01,3.97c1.19,1.55,11.32,1.54,14.76-0.12c0.23,0.74,0.18,1.58-0.27,2.5
					l-0.51,0.1c0,0-8.56-0.21-10.46,1.03c-1.9,1.23,3.27,2.45,7.29,1.85c2.23-0.35,3.99-0.87,5.11-1.28
					c0.36,0.78,0.39,1.94-0.56,3.57c0,0-5.37-0.15-8.04,1.09c-2.5,1.17,5.17,1.89,9.81,0.33c0.31,0.62,0.44,1.48,0.14,2.67
					c0,0-6.62-0.53-7.86,0.53C238.97,319.28,249.91,319.04,252.27,321.17z"/>
			</g>
		</g>
	</g>
</g>
</svg>
